<mxfile host="app.diagrams.net" modified="2021-04-19T12:04:37.343Z" agent="5.0 (Windows)" etag="puxc7uIKWtoow6K4Ey4L" version="14.6.1" type="github">
  <diagram id="kgpKYQtTHZ0yAKxKKP6v" name="Page-1">
    <mxGraphModel dx="865" dy="456" grid="1" gridSize="10" guides="1" tooltips="1" connect="1" arrows="1" fold="1" page="1" pageScale="1" pageWidth="850" pageHeight="1100" math="0" shadow="0">
      <root>
        <mxCell id="0" />
        <mxCell id="1" parent="0" />
        <mxCell id="3nuBFxr9cyL0pnOWT2aG-1" value="User" style="shape=umlLifeline;perimeter=lifelinePerimeter;container=1;collapsible=0;recursiveResize=0;rounded=0;shadow=0;strokeWidth=1;" parent="1" vertex="1">
          <mxGeometry x="120" y="80" width="100" height="300" as="geometry" />
        </mxCell>
        <mxCell id="3nuBFxr9cyL0pnOWT2aG-5" value="WebController" style="shape=umlLifeline;perimeter=lifelinePerimeter;container=1;collapsible=0;recursiveResize=0;rounded=0;shadow=0;strokeWidth=1;" parent="1" vertex="1">
          <mxGeometry x="300" y="80" width="100" height="300" as="geometry" />
        </mxCell>
        <mxCell id="1I_f_etLA8JMyNbliz0d-3" value="LoginUserServiceImpl" style="shape=umlLifeline;perimeter=lifelinePerimeter;container=1;collapsible=0;recursiveResize=0;rounded=0;shadow=0;strokeWidth=1;" vertex="1" parent="1">
          <mxGeometry x="470" y="80" width="130" height="300" as="geometry" />
        </mxCell>
        <mxCell id="1I_f_etLA8JMyNbliz0d-12" value="" style="endArrow=classic;html=1;" edge="1" parent="1I_f_etLA8JMyNbliz0d-3" target="1I_f_etLA8JMyNbliz0d-4">
          <mxGeometry width="50" height="50" relative="1" as="geometry">
            <mxPoint x="70" y="200" as="sourcePoint" />
            <mxPoint x="120" y="150" as="targetPoint" />
          </mxGeometry>
        </mxCell>
        <mxCell id="1I_f_etLA8JMyNbliz0d-4" value="UserDao" style="shape=umlLifeline;perimeter=lifelinePerimeter;container=1;collapsible=0;recursiveResize=0;rounded=0;shadow=0;strokeWidth=1;" vertex="1" parent="1">
          <mxGeometry x="650" y="80" width="130" height="300" as="geometry" />
        </mxCell>
        <mxCell id="1I_f_etLA8JMyNbliz0d-6" value="" style="endArrow=classic;html=1;entryX=0.503;entryY=0.268;entryDx=0;entryDy=0;entryPerimeter=0;" edge="1" parent="1" source="3nuBFxr9cyL0pnOWT2aG-1" target="3nuBFxr9cyL0pnOWT2aG-5">
          <mxGeometry width="50" height="50" relative="1" as="geometry">
            <mxPoint x="220" y="210" as="sourcePoint" />
            <mxPoint x="270" y="160" as="targetPoint" />
          </mxGeometry>
        </mxCell>
        <mxCell id="1I_f_etLA8JMyNbliz0d-8" value="" style="endArrow=classic;html=1;" edge="1" parent="1">
          <mxGeometry width="50" height="50" relative="1" as="geometry">
            <mxPoint x="349.66666666666674" y="259.17" as="sourcePoint" />
            <mxPoint x="534.5000000000002" y="259.17" as="targetPoint" />
          </mxGeometry>
        </mxCell>
        <mxCell id="1I_f_etLA8JMyNbliz0d-9" value="&lt;div&gt;1.用户登录并注册&lt;/div&gt;&lt;div&gt;localhost:8080/html/login&lt;br&gt;&lt;/div&gt;" style="text;html=1;strokeColor=none;fillColor=none;align=center;verticalAlign=middle;whiteSpace=wrap;rounded=0;" vertex="1" parent="1">
          <mxGeometry x="190" y="130" width="150" height="20" as="geometry" />
        </mxCell>
        <mxCell id="1I_f_etLA8JMyNbliz0d-10" value="3.Ajax异步发送信息校验用户已注册" style="text;html=1;strokeColor=none;fillColor=none;align=center;verticalAlign=middle;whiteSpace=wrap;rounded=0;" vertex="1" parent="1">
          <mxGeometry x="405" y="209.17000000000002" width="115" height="20" as="geometry" />
        </mxCell>
        <mxCell id="1I_f_etLA8JMyNbliz0d-11" value="4.用户不存在" style="text;html=1;strokeColor=none;fillColor=none;align=center;verticalAlign=middle;whiteSpace=wrap;rounded=0;" vertex="1" parent="1">
          <mxGeometry x="390" y="239.17000000000002" width="110" height="20" as="geometry" />
        </mxCell>
        <mxCell id="1I_f_etLA8JMyNbliz0d-13" value="5.创建用户信息" style="text;html=1;strokeColor=none;fillColor=none;align=center;verticalAlign=middle;whiteSpace=wrap;rounded=0;" vertex="1" parent="1">
          <mxGeometry x="570" y="260" width="110" height="20" as="geometry" />
        </mxCell>
        <mxCell id="1I_f_etLA8JMyNbliz0d-14" value="" style="endArrow=classic;html=1;entryX=0.508;entryY=0.763;entryDx=0;entryDy=0;entryPerimeter=0;" edge="1" parent="1" source="1I_f_etLA8JMyNbliz0d-4" target="3nuBFxr9cyL0pnOWT2aG-5">
          <mxGeometry width="50" height="50" relative="1" as="geometry">
            <mxPoint x="620" y="360" as="sourcePoint" />
            <mxPoint x="670" y="310" as="targetPoint" />
          </mxGeometry>
        </mxCell>
        <mxCell id="1I_f_etLA8JMyNbliz0d-15" value="6.创建用户成功" style="text;html=1;strokeColor=none;fillColor=none;align=center;verticalAlign=middle;whiteSpace=wrap;rounded=0;" vertex="1" parent="1">
          <mxGeometry x="500" y="290" width="90" height="20" as="geometry" />
        </mxCell>
        <mxCell id="1I_f_etLA8JMyNbliz0d-16" value="" style="endArrow=classic;html=1;exitX=0.483;exitY=0.861;exitDx=0;exitDy=0;exitPerimeter=0;" edge="1" parent="1" source="3nuBFxr9cyL0pnOWT2aG-5" target="3nuBFxr9cyL0pnOWT2aG-1">
          <mxGeometry width="50" height="50" relative="1" as="geometry">
            <mxPoint x="230" y="330" as="sourcePoint" />
            <mxPoint x="280" y="280" as="targetPoint" />
          </mxGeometry>
        </mxCell>
        <mxCell id="1I_f_etLA8JMyNbliz0d-17" value="7.返回用户信息" style="text;html=1;strokeColor=none;fillColor=none;align=center;verticalAlign=middle;whiteSpace=wrap;rounded=0;" vertex="1" parent="1">
          <mxGeometry x="210" y="310" width="90" height="20" as="geometry" />
        </mxCell>
        <mxCell id="1I_f_etLA8JMyNbliz0d-18" value="" style="endArrow=classic;html=1;entryX=0.498;entryY=0.366;entryDx=0;entryDy=0;entryPerimeter=0;" edge="1" parent="1" target="3nuBFxr9cyL0pnOWT2aG-5">
          <mxGeometry width="50" height="50" relative="1" as="geometry">
            <mxPoint x="350.0014285714285" y="170.39999999999992" as="sourcePoint" />
            <mxPoint x="349" y="192" as="targetPoint" />
            <Array as="points">
              <mxPoint x="400" y="170" />
              <mxPoint x="400" y="190" />
              <mxPoint x="380" y="190" />
            </Array>
          </mxGeometry>
        </mxCell>
        <mxCell id="1I_f_etLA8JMyNbliz0d-19" value="2.validate表单验证输入 是否符合要求" style="text;html=1;strokeColor=none;fillColor=none;align=center;verticalAlign=middle;whiteSpace=wrap;rounded=0;" vertex="1" parent="1">
          <mxGeometry x="405" y="170" width="115" height="20" as="geometry" />
        </mxCell>
        <mxCell id="1I_f_etLA8JMyNbliz0d-20" value="" style="endArrow=classic;html=1;entryX=0.498;entryY=0.366;entryDx=0;entryDy=0;entryPerimeter=0;" edge="1" parent="1">
          <mxGeometry width="50" height="50" relative="1" as="geometry">
            <mxPoint x="350.0014285714285" y="209.56999999999994" as="sourcePoint" />
            <mxPoint x="349.79999999999995" y="228.97000000000003" as="targetPoint" />
            <Array as="points">
              <mxPoint x="400" y="209.17000000000002" />
              <mxPoint x="400" y="229.17000000000002" />
              <mxPoint x="380" y="229.17000000000002" />
            </Array>
          </mxGeometry>
        </mxCell>
        <mxCell id="1I_f_etLA8JMyNbliz0d-58" value="User" style="shape=umlLifeline;perimeter=lifelinePerimeter;container=1;collapsible=0;recursiveResize=0;rounded=0;shadow=0;strokeWidth=1;" vertex="1" parent="1">
          <mxGeometry x="110" y="570" width="100" height="300" as="geometry" />
        </mxCell>
        <mxCell id="1I_f_etLA8JMyNbliz0d-59" value="WebController" style="shape=umlLifeline;perimeter=lifelinePerimeter;container=1;collapsible=0;recursiveResize=0;rounded=0;shadow=0;strokeWidth=1;" vertex="1" parent="1">
          <mxGeometry x="290" y="570" width="100" height="300" as="geometry" />
        </mxCell>
        <mxCell id="1I_f_etLA8JMyNbliz0d-60" value="addEquipmentServiceImpl" style="shape=umlLifeline;perimeter=lifelinePerimeter;container=1;collapsible=0;recursiveResize=0;rounded=0;shadow=0;strokeWidth=1;" vertex="1" parent="1">
          <mxGeometry x="460" y="570" width="140" height="300" as="geometry" />
        </mxCell>
        <mxCell id="1I_f_etLA8JMyNbliz0d-61" value="" style="endArrow=classic;html=1;" edge="1" parent="1I_f_etLA8JMyNbliz0d-60">
          <mxGeometry width="50" height="50" relative="1" as="geometry">
            <mxPoint x="70" y="190" as="sourcePoint" />
            <mxPoint x="244.5" y="190" as="targetPoint" />
          </mxGeometry>
        </mxCell>
        <mxCell id="1I_f_etLA8JMyNbliz0d-62" value="EquiomentDao" style="shape=umlLifeline;perimeter=lifelinePerimeter;container=1;collapsible=0;recursiveResize=0;rounded=0;shadow=0;strokeWidth=1;" vertex="1" parent="1">
          <mxGeometry x="640" y="570" width="130" height="300" as="geometry" />
        </mxCell>
        <mxCell id="1I_f_etLA8JMyNbliz0d-63" value="" style="endArrow=classic;html=1;entryX=0.503;entryY=0.268;entryDx=0;entryDy=0;entryPerimeter=0;" edge="1" parent="1" source="1I_f_etLA8JMyNbliz0d-58" target="1I_f_etLA8JMyNbliz0d-59">
          <mxGeometry width="50" height="50" relative="1" as="geometry">
            <mxPoint x="210" y="700" as="sourcePoint" />
            <mxPoint x="260" y="650" as="targetPoint" />
          </mxGeometry>
        </mxCell>
        <mxCell id="1I_f_etLA8JMyNbliz0d-64" value="" style="endArrow=classic;html=1;" edge="1" parent="1">
          <mxGeometry width="50" height="50" relative="1" as="geometry">
            <mxPoint x="339.9966666666667" y="729.6600000000001" as="sourcePoint" />
            <mxPoint x="524.8300000000003" y="729.6600000000001" as="targetPoint" />
          </mxGeometry>
        </mxCell>
        <mxCell id="1I_f_etLA8JMyNbliz0d-65" value="&lt;div style=&quot;font-size: 9px&quot;&gt;&lt;font style=&quot;font-size: 9px&quot;&gt;1.添加设备&lt;/font&gt;&lt;/div&gt;&lt;div style=&quot;font-size: 9px&quot;&gt;&lt;font style=&quot;font-size: 9px&quot;&gt;http://localhost:8080/html/userManage.html&lt;br&gt;&lt;/font&gt;&lt;/div&gt;&lt;div style=&quot;font-size: 9px&quot;&gt;&lt;font style=&quot;font-size: 9px&quot;&gt;&lt;br&gt;&lt;/font&gt;&lt;/div&gt;" style="text;html=1;strokeColor=none;fillColor=none;align=center;verticalAlign=middle;whiteSpace=wrap;rounded=0;" vertex="1" parent="1">
          <mxGeometry x="180" y="620" width="150" height="20" as="geometry" />
        </mxCell>
        <mxCell id="1I_f_etLA8JMyNbliz0d-66" value="&lt;font style=&quot;font-size: 9px&quot;&gt;2.检查是否该设备已经存在&lt;/font&gt;" style="text;html=1;strokeColor=none;fillColor=none;align=center;verticalAlign=middle;whiteSpace=wrap;rounded=0;" vertex="1" parent="1">
          <mxGeometry x="395.2" y="670" width="114.8" height="20" as="geometry" />
        </mxCell>
        <mxCell id="1I_f_etLA8JMyNbliz0d-67" value="&lt;font style=&quot;font-size: 9px&quot;&gt;4.&lt;font style=&quot;font-size: 9px&quot;&gt;设备不存在&lt;/font&gt;&lt;/font&gt;" style="text;html=1;strokeColor=none;fillColor=none;align=center;verticalAlign=middle;whiteSpace=wrap;rounded=0;" vertex="1" parent="1">
          <mxGeometry x="380.33" y="709.6600000000001" width="110" height="20" as="geometry" />
        </mxCell>
        <mxCell id="1I_f_etLA8JMyNbliz0d-68" value="&lt;font style=&quot;font-size: 9px&quot;&gt;5.添加设备数据到相应的数据库&lt;/font&gt;" style="text;html=1;strokeColor=none;fillColor=none;align=center;verticalAlign=middle;whiteSpace=wrap;rounded=0;" vertex="1" parent="1">
          <mxGeometry x="550" y="740" width="140" height="20" as="geometry" />
        </mxCell>
        <mxCell id="1I_f_etLA8JMyNbliz0d-69" value="" style="endArrow=classic;html=1;entryX=0.508;entryY=0.763;entryDx=0;entryDy=0;entryPerimeter=0;" edge="1" parent="1" source="1I_f_etLA8JMyNbliz0d-62" target="1I_f_etLA8JMyNbliz0d-59">
          <mxGeometry width="50" height="50" relative="1" as="geometry">
            <mxPoint x="610" y="850" as="sourcePoint" />
            <mxPoint x="660" y="800" as="targetPoint" />
          </mxGeometry>
        </mxCell>
        <mxCell id="1I_f_etLA8JMyNbliz0d-70" value="&lt;font style=&quot;font-size: 9px&quot;&gt;6.插入成功&lt;/font&gt;" style="text;html=1;strokeColor=none;fillColor=none;align=center;verticalAlign=middle;whiteSpace=wrap;rounded=0;" vertex="1" parent="1">
          <mxGeometry x="450" y="780" width="90" height="20" as="geometry" />
        </mxCell>
        <mxCell id="1I_f_etLA8JMyNbliz0d-71" value="" style="endArrow=classic;html=1;exitX=0.483;exitY=0.861;exitDx=0;exitDy=0;exitPerimeter=0;" edge="1" parent="1" source="1I_f_etLA8JMyNbliz0d-59" target="1I_f_etLA8JMyNbliz0d-58">
          <mxGeometry width="50" height="50" relative="1" as="geometry">
            <mxPoint x="220" y="820" as="sourcePoint" />
            <mxPoint x="270" y="770" as="targetPoint" />
          </mxGeometry>
        </mxCell>
        <mxCell id="1I_f_etLA8JMyNbliz0d-72" value="&lt;font style=&quot;font-size: 9px&quot;&gt;7.返回插入设备信息&lt;/font&gt;" style="text;html=1;strokeColor=none;fillColor=none;align=center;verticalAlign=middle;whiteSpace=wrap;rounded=0;" vertex="1" parent="1">
          <mxGeometry x="200" y="800" width="110" height="20" as="geometry" />
        </mxCell>
        <mxCell id="1I_f_etLA8JMyNbliz0d-75" value="" style="endArrow=classic;html=1;entryX=0.498;entryY=0.366;entryDx=0;entryDy=0;entryPerimeter=0;" edge="1" parent="1">
          <mxGeometry width="50" height="50" relative="1" as="geometry">
            <mxPoint x="340.2014285714285" y="670.4" as="sourcePoint" />
            <mxPoint x="339.99999999999994" y="689.8000000000001" as="targetPoint" />
            <Array as="points">
              <mxPoint x="390.2" y="670.0000000000001" />
              <mxPoint x="390.2" y="690.0000000000001" />
              <mxPoint x="370.2" y="690.0000000000001" />
            </Array>
          </mxGeometry>
        </mxCell>
        <mxCell id="1I_f_etLA8JMyNbliz0d-76" value="" style="endArrow=classic;html=1;exitX=0.506;exitY=0.459;exitDx=0;exitDy=0;exitPerimeter=0;" edge="1" parent="1" source="1I_f_etLA8JMyNbliz0d-59" target="1I_f_etLA8JMyNbliz0d-58">
          <mxGeometry width="50" height="50" relative="1" as="geometry">
            <mxPoint x="350" y="760" as="sourcePoint" />
            <mxPoint x="400" y="710" as="targetPoint" />
          </mxGeometry>
        </mxCell>
        <mxCell id="1I_f_etLA8JMyNbliz0d-77" value="&lt;font style=&quot;font-size: 9px&quot;&gt;3.存在直接返回&lt;/font&gt;" style="text;html=1;strokeColor=none;fillColor=none;align=center;verticalAlign=middle;whiteSpace=wrap;rounded=0;" vertex="1" parent="1">
          <mxGeometry x="195" y="680" width="100" height="20" as="geometry" />
        </mxCell>
      </root>
    </mxGraphModel>
  </diagram>
</mxfile>
